<?xml version="1.0" standalone="no"?>
<!DOCTYPE svg PUBLIC "-//W3C//DTD SVG 20010904//EN"
 "http://www.w3.org/TR/2001/REC-SVG-20010904/DTD/svg10.dtd">
<svg version="1.0" xmlns="http://www.w3.org/2000/svg"
 width="512.000000pt" height="512.000000pt" viewBox="0 0 512.000000 512.000000"
 preserveAspectRatio="xMidYMid meet">

<g transform="translate(0.000000,512.000000) scale(0.100000,-0.100000)"
fill="#000000" stroke="none">
<path d="M2459 5109 c-172 -14 -362 -84 -511 -188 -51 -35 -341 -319 -954
-933 l-882 -883 -41 -85 c-74 -151 -71 -95 -71 -1335 0 -1241 -3 -1184 71
-1335 79 -160 235 -284 415 -330 76 -20 119 -20 2074 -20 1955 0 1998 0 2074
20 180 46 336 170 415 330 74 151 71 94 71 1335 0 1240 3 1184 -71 1335 l-41
85 -882 883 c-597 598 -904 898 -951 931 -215 148 -455 212 -716 190z m300
-454 c49 -16 109 -45 153 -75 99 -66 1740 -1707 1763 -1762 13 -33 15 -170 15
-1136 l0 -1099 -23 -44 c-13 -24 -43 -57 -66 -74 l-43 -30 -464 -3 -464 -3 0
426 c0 236 -5 469 -11 522 -32 294 -182 561 -411 733 -497 375 -1190 258
-1538 -259 -89 -133 -150 -304 -169 -474 -6 -53 -11 -286 -11 -522 l0 -426
-464 3 -464 3 -43 30 c-23 17 -53 50 -66 74 l-23 44 0 1099 c0 966 2 1103 15
1136 19 46 1648 1680 1743 1749 69 50 181 98 264 113 83 14 215 4 307 -25z
m-44 -2770 c176 -45 338 -177 415 -336 67 -140 70 -166 70 -671 l0 -448 -641
0 -640 0 3 478 3 477 31 85 c38 108 86 181 174 263 73 70 174 126 270 151 74
20 240 20 315 1z"/>
</g>
</svg>
